<?xml version="1.0" encoding="UTF-8" standalone="no" ?>
<!DOCTYPE svg PUBLIC "-//W3C//DTD SVG 1.1//EN" "http://www.w3.org/Graphics/SVG/1.1/DTD/svg11.dtd">
<svg xmlns="http://www.w3.org/2000/svg" xmlns:xlink="http://www.w3.org/1999/xlink" version="1.1" width="32" height="32" viewBox="0 0 32 32" xml:space="preserve">
<desc>Created with Fabric.js 5.2.4</desc>
<defs>
</defs>
<g transform="matrix(1 0 0 1 16 16)" id="1c601aa8-c8ef-4e9f-a293-c7f22b74bda0"  >
<rect style="stroke: none; stroke-width: 1; stroke-dasharray: none; stroke-linecap: butt; stroke-dashoffset: 0; stroke-linejoin: miter; stroke-miterlimit: 4; fill: rgb(255,255,255); fill-rule: nonzero; opacity: 1; visibility: hidden;" vector-effect="non-scaling-stroke"  x="-16" y="-16" rx="0" ry="0" width="32" height="32" />
</g>
<g transform="matrix(Infinity NaN NaN Infinity 0 0)" id="71b230d5-52c1-433e-b4cd-0f3e38ae83c5"  >
</g>
<g transform="matrix(0.03 0 0 0.03 32 32)"  >
<g style="" vector-effect="non-scaling-stroke"   >
		<g transform="matrix(1 0 0 1 0 0)"  >
<path style="stroke: none; stroke-width: 1; stroke-dasharray: none; stroke-linecap: butt; stroke-dashoffset: 0; stroke-linejoin: miter; stroke-miterlimit: 4; fill: rgb(10,102,194); fill-rule: nonzero; opacity: 1;" vector-effect="non-scaling-stroke"  transform=" translate(-32, -32)" d="M 55.92 4 L 8.08 4 C 5.826678220690363 4 4 5.826678220690363 4 8.08 L 4 55.92 C 4.000000000000001 58.17332177930964 5.826678220690365 60 8.080000000000002 60 L 55.92 60 C 58.17332177930964 60 60 58.17332177930964 60 55.92 L 60 8.08 C 60 5.826678220690363 58.17332177930964 4 55.92 4 Z M 20 52 L 12 52 L 12 25 L 20 25 Z M 16 20.7 C 13.404261675795272 20.7 11.3 18.595738324204728 11.3 16 C 11.3 13.40426167579527 13.404261675795272 11.299999999999999 16 11.299999999999999 L 16 11.299999999999999 C 18.595738324204728 11.299999999999999 20.7 13.404261675795269 20.7 15.999999999999998 C 20.700000000000003 18.595738324204728 18.59573832420473 20.7 16 20.7 Z M 52 52 L 44 52 L 44 37.81 C 44 33.5 41.27 31.700000000000003 39 31.700000000000003 C 37.35540960983681 31.645348466744213 35.76454116634278 32.28942618848878 34.62117911670698 33.472805909861826 C 33.47781706707119 34.65618563123487 32.88882684190329 36.26826163155541 33 37.910000000000004 L 33 52 L 25 52 L 25 25 L 32.53 25 L 32.53 28.79 L 32.64 28.79 C 33.44 27.15 37.08 24.419999999999998 41.77 24.419999999999998 C 46.46000000000001 24.419999999999998 52 27.59 52 35.76 Z" stroke-linecap="round" />
</g>
		<g transform="matrix(1 0 0 1 -0.35 -0.35)"  >
<path style="stroke: none; stroke-width: 1; stroke-dasharray: none; stroke-linecap: butt; stroke-dashoffset: 0; stroke-linejoin: miter; stroke-miterlimit: 4; fill: rgb(255,255,255); fill-rule: nonzero; opacity: 1;" vector-effect="non-scaling-stroke"  transform=" translate(-31.65, -31.65)" d="M 52 35.76 L 52 52 L 44 52 L 44 37.81 C 44 33.5 41.27 31.700000000000003 39 31.700000000000003 C 37.35540960983681 31.645348466744213 35.76454116634278 32.28942618848878 34.62117911670698 33.472805909861826 C 33.47781706707119 34.65618563123487 32.88882684190329 36.26826163155541 33 37.910000000000004 L 33 52 L 25 52 L 25 25 L 32.53 25 L 32.53 28.79 L 32.64 28.79 C 33.44 27.15 37.08 24.419999999999998 41.77 24.419999999999998 C 46.46000000000001 24.419999999999998 52 27.59 52 35.76 Z M 16 11.3 C 13.404261675795272 11.3 11.299999999999999 13.404261675795272 11.299999999999999 16 C 11.299999999999999 18.59573832420473 13.40426167579527 20.700000000000003 16 20.700000000000003 C 18.595738324204728 20.700000000000003 20.7 18.59573832420473 20.7 16 C 20.702662403532333 14.752668210265497 20.208340263647443 13.555657288547483 19.326341487549982 12.67365851245002 C 18.444342711452517 11.791659736352555 17.247331789734503 11.297337596467667 16 11.3 Z M 12 52 L 20 52 L 20 25 L 12 25 Z" stroke-linecap="round" />
</g>
</g>
</g>
<g transform="matrix(1 0 0 1 16 16)"  >
<g style="" vector-effect="non-scaling-stroke"   >
		<g transform="matrix(1 0 0 1 0 0)"  >
<path style="stroke: none; stroke-width: 1; stroke-dasharray: none; stroke-linecap: butt; stroke-dashoffset: 0; stroke-linejoin: miter; stroke-miterlimit: 4; fill: rgb(10,102,194); fill-rule: nonzero; opacity: 1;" vector-effect="non-scaling-stroke"  transform=" translate(-32, -32)" d="M 55.92 4 L 8.08 4 C 5.826678220690363 4 4 5.826678220690363 4 8.08 L 4 55.92 C 4.000000000000001 58.17332177930964 5.826678220690365 60 8.080000000000002 60 L 55.92 60 C 58.17332177930964 60 60 58.17332177930964 60 55.92 L 60 8.08 C 60 5.826678220690363 58.17332177930964 4 55.92 4 Z M 20 52 L 12 52 L 12 25 L 20 25 Z M 16 20.7 C 13.404261675795272 20.7 11.3 18.595738324204728 11.3 16 C 11.3 13.40426167579527 13.404261675795272 11.299999999999999 16 11.299999999999999 L 16 11.299999999999999 C 18.595738324204728 11.299999999999999 20.7 13.404261675795269 20.7 15.999999999999998 C 20.700000000000003 18.595738324204728 18.59573832420473 20.7 16 20.7 Z M 52 52 L 44 52 L 44 37.81 C 44 33.5 41.27 31.700000000000003 39 31.700000000000003 C 37.35540960983681 31.645348466744213 35.76454116634278 32.28942618848878 34.62117911670698 33.472805909861826 C 33.47781706707119 34.65618563123487 32.88882684190329 36.26826163155541 33 37.910000000000004 L 33 52 L 25 52 L 25 25 L 32.53 25 L 32.53 28.79 L 32.64 28.79 C 33.44 27.15 37.08 24.419999999999998 41.77 24.419999999999998 C 46.46000000000001 24.419999999999998 52 27.59 52 35.76 Z" stroke-linecap="round" />
</g>
		<g transform="matrix(1 0 0 1 -0.35 -0.35)"  >
<path style="stroke: none; stroke-width: 1; stroke-dasharray: none; stroke-linecap: butt; stroke-dashoffset: 0; stroke-linejoin: miter; stroke-miterlimit: 4; fill: rgb(255,255,255); fill-rule: nonzero; opacity: 1;" vector-effect="non-scaling-stroke"  transform=" translate(-31.65, -31.65)" d="M 52 35.76 L 52 52 L 44 52 L 44 37.81 C 44 33.5 41.27 31.700000000000003 39 31.700000000000003 C 37.35540960983681 31.645348466744213 35.76454116634278 32.28942618848878 34.62117911670698 33.472805909861826 C 33.47781706707119 34.65618563123487 32.88882684190329 36.26826163155541 33 37.910000000000004 L 33 52 L 25 52 L 25 25 L 32.53 25 L 32.53 28.79 L 32.64 28.79 C 33.44 27.15 37.08 24.419999999999998 41.77 24.419999999999998 C 46.46000000000001 24.419999999999998 52 27.59 52 35.76 Z M 16 11.3 C 13.404261675795272 11.3 11.299999999999999 13.404261675795272 11.299999999999999 16 C 11.299999999999999 18.59573832420473 13.40426167579527 20.700000000000003 16 20.700000000000003 C 18.595738324204728 20.700000000000003 20.7 18.59573832420473 20.7 16 C 20.702662403532333 14.752668210265497 20.208340263647443 13.555657288547483 19.326341487549982 12.67365851245002 C 18.444342711452517 11.791659736352555 17.247331789734503 11.297337596467667 16 11.3 Z M 12 52 L 20 52 L 20 25 L 12 25 Z" stroke-linecap="round" />
</g>
</g>
</g>
</svg>